<?xml version="1.0" encoding="UTF-8"?>
<svg width="900" height="500" xmlns="http://www.w3.org/2000/svg">
  <rect width="100%" height="100%" fill="white"/>
  <text x="450.0" y="30" text-anchor="middle" font-size="16" font-weight="bold">Mutex vs RWMutex: 1% Writes</text>
  <text x="450.0" y="495" text-anchor="middle" font-size="13">Concurrent Readers</text>
  <text x="15" y="250.0" text-anchor="middle" font-size="13" transform="rotate(-90,15,250.0)">ns/op (lower is better)</text>
  <line x1="60" y1="440" x2="840" y2="440" stroke="black"/>
  <line x1="60" y1="60" x2="60" y2="440" stroke="black"/>
  <rect x="250" y="171.15759500602343" width="30" height="268.8424049939766" fill="#e63946"/>
  <text x="265.0" y="166.15759500602343" text-anchor="middle" font-size="10">323</text>
  <rect x="290" y="263.5461614281021" width="30" height="176.45383857189793" fill="#457b9d"/>
  <text x="305.0" y="258.5461614281021" text-anchor="middle" font-size="10">212</text>
  <text x="285.0" y="460" text-anchor="middle" font-size="12">1r</text>
  <rect x="360" y="138.69674734421199" width="30" height="301.303252655788" fill="#e63946"/>
  <text x="375.0" y="133.69674734421199" text-anchor="middle" font-size="10">362</text>
  <rect x="400" y="200.28912495893107" width="30" height="239.71087504106893" fill="#457b9d"/>
  <text x="415.0" y="195.28912495893107" text-anchor="middle" font-size="10">288</text>
  <text x="395.0" y="460" text-anchor="middle" font-size="12">5r</text>
  <rect x="470" y="117.88851166356363" width="30" height="322.11148833643637" fill="#e63946"/>
  <text x="485.0" y="112.88851166356363" text-anchor="middle" font-size="10">387</text>
  <rect x="510" y="212.77406636732007" width="30" height="227.22593363267993" fill="#457b9d"/>
  <text x="525.0" y="207.77406636732007" text-anchor="middle" font-size="10">273</text>
  <text x="505.0" y="460" text-anchor="middle" font-size="12">10r</text>
  <rect x="580" y="109.56521739130432" width="30" height="330.4347826086957" fill="#e63946"/>
  <text x="595.0" y="104.56521739130432" text-anchor="middle" font-size="10">397</text>
  <rect x="620" y="122.05015879969335" width="30" height="317.94984120030665" fill="#457b9d"/>
  <text x="635.0" y="117.05015879969335" text-anchor="middle" font-size="10">382</text>
  <text x="615.0" y="460" text-anchor="middle" font-size="12">50r</text>
  <rect x="720" y="50" width="12" height="12" fill="#e63946"/>
  <text x="738" y="61" font-size="12">sync.Mutex</text>
  <rect x="720" y="72" width="12" height="12" fill="#457b9d"/>
  <text x="738" y="83" font-size="12">sync.RWMutex</text>
</svg>